<?xml version="1.0" encoding="us-ascii" standalone="no"?><svg xmlns="http://www.w3.org/2000/svg" xmlns:xlink="http://www.w3.org/1999/xlink" contentStyleType="text/css" height="687px" preserveAspectRatio="none" style="width:407px;height:687px;background:#FFFFFF;" version="1.1" viewBox="0 0 407 687" width="407px" zoomAndPan="magnify"><defs/><g><!--cluster ER Diagram--><g id="cluster_ER Diagram"><path d="M8.5,6 L102.5,6 A3.75,3.75 0 0 1 105,8.5 L112,28.2969 L397.5,28.2969 A2.5,2.5 0 0 1 400,30.7969 L400,677.5 A2.5,2.5 0 0 1 397.5,680 L8.5,680 A2.5,2.5 0 0 1 6,677.5 L6,8.5 A2.5,2.5 0 0 1 8.5,6 " fill="none" style="stroke:#000000;stroke-width:1.5;"/><line style="stroke:#000000;stroke-width:1.5;" x1="6" x2="112" y1="28.2969" y2="28.2969"/><text fill="#000000" font-family="sans-serif" font-size="14" font-weight="bold" lengthAdjust="spacing" textLength="93" x="10" y="20.9951">ER Diagram</text></g><!--class Notifications--><g id="elem_Notifications"><rect codeLine="3" fill="#F1F1F1" height="113.1875" id="Notifications" rx="2.5" ry="2.5" style="stroke:#181818;stroke-width:0.5;" width="201" x="25.5" y="551"/><ellipse cx="75.75" cy="567" fill="#ADD1B2" rx="11" ry="11" style="stroke:#181818;stroke-width:1.0;"/><path d="M74.5469,567.875 L76,567.875 L76,567.9844 C76,568.3906 76.0313,568.5469 76.1094,568.7031 C76.2656,568.9531 76.5469,569.1094 76.8438,569.1094 C77.0938,569.1094 77.3594,568.9688 77.5156,568.75 C77.6406,568.5938 77.6719,568.4375 77.6719,567.9844 L77.6719,566.0625 C77.6719,565.9063 77.6719,565.8594 77.6563,565.7031 C77.5938,565.2344 77.2813,564.9219 76.8281,564.9219 C76.5781,564.9219 76.3125,565.0625 76.1406,565.2813 C76.0313,565.4531 76,565.6094 76,566.0625 L76,566.1875 L74.5469,566.1875 L74.5469,563.7813 L78.5313,563.7813 L78.5313,564.6406 C78.5313,565.0469 78.5625,565.2188 78.6406,565.375 C78.8125,565.625 79.0938,565.7813 79.375,565.7813 C79.6406,565.7813 79.9063,565.6406 80.0781,565.4219 C80.1875,565.25 80.2188,565.1094 80.2188,564.6406 L80.2188,562.0938 L72.5938,562.0938 C72.1563,562.0938 72.0313,562.1094 71.875,562.2031 C71.625,562.3594 71.4688,562.6563 71.4688,562.9375 C71.4688,563.2188 71.6094,563.4688 71.8281,563.6406 C71.9844,563.75 72.1719,563.7813 72.5938,563.7813 L72.8438,563.7813 L72.8438,570.2969 L72.5938,570.2969 C72.1875,570.2969 72.0313,570.3125 71.875,570.4219 C71.625,570.5938 71.4688,570.8594 71.4688,571.1563 C71.4688,571.4219 71.6094,571.6719 71.8281,571.8281 C71.9688,571.9531 72.2031,572 72.5938,572 L80.5938,572 L80.5938,569.4219 C80.5938,568.9844 80.5625,568.8438 80.4844,568.6875 C80.3125,568.4375 80.0313,568.2813 79.75,568.2813 C79.4844,568.2813 79.2188,568.3906 79.0469,568.6406 C78.9375,568.7969 78.9063,568.9375 78.9063,569.4219 L78.9063,570.2969 L74.5469,570.2969 L74.5469,567.875 Z " fill="#000000"/><text fill="#000000" font-family="sans-serif" font-size="14" lengthAdjust="spacing" textLength="92" x="96.25" y="571.8467">Notifications</text><line style="stroke:#181818;stroke-width:0.5;" x1="26.5" x2="225.5" y1="583" y2="583"/><ellipse cx="36.5" cy="596.6484" fill="none" rx="3" ry="3" style="stroke:#038048;stroke-width:1.0;"/><text fill="#000000" font-family="sans-serif" font-size="14" lengthAdjust="spacing" textLength="118" x="45.5" y="599.9951">id : Integer &#171;PK&#187;</text><text fill="#000000" font-family="sans-serif" font-size="14" lengthAdjust="spacing" textLength="154" x="45.5" y="616.292">user_id : Integer &#171;FK&#187;</text><text fill="#000000" font-family="sans-serif" font-size="14" lengthAdjust="spacing" textLength="175" x="45.5" y="632.5889">vehicle_id : Integer &#171;FK&#187;</text><text fill="#000000" font-family="sans-serif" font-size="14" lengthAdjust="spacing" textLength="149" x="45.5" y="648.8857">datetime : Datetime</text><line style="stroke:#181818;stroke-width:0.5;" x1="26.5" x2="225.5" y1="656.1875" y2="656.1875"/></g><!--class Users--><g id="elem_Users"><rect codeLine="10" fill="#F1F1F1" height="178.375" id="Users" rx="2.5" ry="2.5" style="stroke:#181818;stroke-width:0.5;" width="362" x="22" y="41"/><ellipse cx="179.75" cy="57" fill="#ADD1B2" rx="11" ry="11" style="stroke:#181818;stroke-width:1.0;"/><path d="M178.5469,57.875 L180,57.875 L180,57.9844 C180,58.3906 180.0313,58.5469 180.1094,58.7031 C180.2656,58.9531 180.5469,59.1094 180.8438,59.1094 C181.0938,59.1094 181.3594,58.9688 181.5156,58.75 C181.6406,58.5938 181.6719,58.4375 181.6719,57.9844 L181.6719,56.0625 C181.6719,55.9063 181.6719,55.8594 181.6563,55.7031 C181.5938,55.2344 181.2813,54.9219 180.8281,54.9219 C180.5781,54.9219 180.3125,55.0625 180.1406,55.2813 C180.0313,55.4531 180,55.6094 180,56.0625 L180,56.1875 L178.5469,56.1875 L178.5469,53.7813 L182.5313,53.7813 L182.5313,54.6406 C182.5313,55.0469 182.5625,55.2188 182.6406,55.375 C182.8125,55.625 183.0938,55.7813 183.375,55.7813 C183.6406,55.7813 183.9063,55.6406 184.0781,55.4219 C184.1875,55.25 184.2188,55.1094 184.2188,54.6406 L184.2188,52.0938 L176.5938,52.0938 C176.1563,52.0938 176.0313,52.1094 175.875,52.2031 C175.625,52.3594 175.4688,52.6563 175.4688,52.9375 C175.4688,53.2188 175.6094,53.4688 175.8281,53.6406 C175.9844,53.75 176.1719,53.7813 176.5938,53.7813 L176.8438,53.7813 L176.8438,60.2969 L176.5938,60.2969 C176.1875,60.2969 176.0313,60.3125 175.875,60.4219 C175.625,60.5938 175.4688,60.8594 175.4688,61.1563 C175.4688,61.4219 175.6094,61.6719 175.8281,61.8281 C175.9688,61.9531 176.2031,62 176.5938,62 L184.5938,62 L184.5938,59.4219 C184.5938,58.9844 184.5625,58.8438 184.4844,58.6875 C184.3125,58.4375 184.0313,58.2813 183.75,58.2813 C183.4844,58.2813 183.2188,58.3906 183.0469,58.6406 C182.9375,58.7969 182.9063,58.9375 182.9063,59.4219 L182.9063,60.2969 L178.5469,60.2969 L178.5469,57.875 Z " fill="#000000"/><text fill="#000000" font-family="sans-serif" font-size="14" lengthAdjust="spacing" textLength="38" x="200.25" y="61.8467">Users</text><line style="stroke:#181818;stroke-width:0.5;" x1="23" x2="383" y1="73" y2="73"/><ellipse cx="33" cy="86.6484" fill="none" rx="3" ry="3" style="stroke:#038048;stroke-width:1.0;"/><text fill="#000000" font-family="sans-serif" font-size="14" lengthAdjust="spacing" textLength="118" x="42" y="89.9951">id : Integer &#171;PK&#187;</text><text fill="#000000" font-family="sans-serif" font-size="14" lengthAdjust="spacing" textLength="97" x="42" y="106.292">name : String</text><text fill="#000000" font-family="sans-serif" font-size="14" lengthAdjust="spacing" textLength="157" x="42" y="122.5889">email : String [unique]</text><text fill="#000000" font-family="sans-serif" font-size="14" lengthAdjust="spacing" textLength="148" x="42" y="138.8857">webhook_url : String</text><text fill="#000000" font-family="sans-serif" font-size="14" lengthAdjust="spacing" textLength="176" x="42" y="155.1826">password_digest : String</text><text fill="#000000" font-family="sans-serif" font-size="14" lengthAdjust="spacing" textLength="186" x="42" y="171.4795">remember_digest : String</text><text fill="#000000" font-family="sans-serif" font-size="14" lengthAdjust="spacing" textLength="309" x="42" y="187.7764">email_notification : Boolean [default: false]</text><text fill="#000000" font-family="sans-serif" font-size="14" lengthAdjust="spacing" textLength="336" x="42" y="204.0732">webhook_notification : Boolean [default: false]</text><line style="stroke:#181818;stroke-width:0.5;" x1="23" x2="383" y1="211.375" y2="211.375"/></g><!--class Vehicles--><g id="elem_Vehicles"><rect codeLine="21" fill="#F1F1F1" height="178.375" id="Vehicles" rx="2.5" ry="2.5" style="stroke:#181818;stroke-width:0.5;" width="209" x="170.5" y="296"/><ellipse cx="240.75" cy="312" fill="#ADD1B2" rx="11" ry="11" style="stroke:#181818;stroke-width:1.0;"/><path d="M239.5469,312.875 L241,312.875 L241,312.9844 C241,313.3906 241.0313,313.5469 241.1094,313.7031 C241.2656,313.9531 241.5469,314.1094 241.8438,314.1094 C242.0938,314.1094 242.3594,313.9688 242.5156,313.75 C242.6406,313.5938 242.6719,313.4375 242.6719,312.9844 L242.6719,311.0625 C242.6719,310.9063 242.6719,310.8594 242.6563,310.7031 C242.5938,310.2344 242.2813,309.9219 241.8281,309.9219 C241.5781,309.9219 241.3125,310.0625 241.1406,310.2813 C241.0313,310.4531 241,310.6094 241,311.0625 L241,311.1875 L239.5469,311.1875 L239.5469,308.7813 L243.5313,308.7813 L243.5313,309.6406 C243.5313,310.0469 243.5625,310.2188 243.6406,310.375 C243.8125,310.625 244.0938,310.7813 244.375,310.7813 C244.6406,310.7813 244.9063,310.6406 245.0781,310.4219 C245.1875,310.25 245.2188,310.1094 245.2188,309.6406 L245.2188,307.0938 L237.5938,307.0938 C237.1563,307.0938 237.0313,307.1094 236.875,307.2031 C236.625,307.3594 236.4688,307.6563 236.4688,307.9375 C236.4688,308.2188 236.6094,308.4688 236.8281,308.6406 C236.9844,308.75 237.1719,308.7813 237.5938,308.7813 L237.8438,308.7813 L237.8438,315.2969 L237.5938,315.2969 C237.1875,315.2969 237.0313,315.3125 236.875,315.4219 C236.625,315.5938 236.4688,315.8594 236.4688,316.1563 C236.4688,316.4219 236.6094,316.6719 236.8281,316.8281 C236.9688,316.9531 237.2031,317 237.5938,317 L245.5938,317 L245.5938,314.4219 C245.5938,313.9844 245.5625,313.8438 245.4844,313.6875 C245.3125,313.4375 245.0313,313.2813 244.75,313.2813 C244.4844,313.2813 244.2188,313.3906 244.0469,313.6406 C243.9375,313.7969 243.9063,313.9375 243.9063,314.4219 L243.9063,315.2969 L239.5469,315.2969 L239.5469,312.875 Z " fill="#000000"/><text fill="#000000" font-family="sans-serif" font-size="14" lengthAdjust="spacing" textLength="60" x="261.25" y="316.8467">Vehicles</text><line style="stroke:#181818;stroke-width:0.5;" x1="171.5" x2="378.5" y1="328" y2="328"/><ellipse cx="181.5" cy="341.6484" fill="none" rx="3" ry="3" style="stroke:#038048;stroke-width:1.0;"/><text fill="#000000" font-family="sans-serif" font-size="14" lengthAdjust="spacing" textLength="118" x="190.5" y="344.9951">id : Integer &#171;PK&#187;</text><text fill="#000000" font-family="sans-serif" font-size="14" lengthAdjust="spacing" textLength="103" x="190.5" y="361.292">maker : String</text><text fill="#000000" font-family="sans-serif" font-size="14" lengthAdjust="spacing" textLength="102" x="190.5" y="377.5889">model : String</text><text fill="#000000" font-family="sans-serif" font-size="14" lengthAdjust="spacing" textLength="183" x="190.5" y="393.8857">production_year : Integer</text><text fill="#000000" font-family="sans-serif" font-size="14" lengthAdjust="spacing" textLength="152" x="190.5" y="410.1826">license_plate : String</text><text fill="#000000" font-family="sans-serif" font-size="14" lengthAdjust="spacing" textLength="137" x="190.5" y="426.4795">lease_expiry : Date</text><text fill="#000000" font-family="sans-serif" font-size="14" lengthAdjust="spacing" textLength="157" x="190.5" y="442.7764">inspection_due : Date</text><text fill="#000000" font-family="sans-serif" font-size="14" lengthAdjust="spacing" textLength="154" x="190.5" y="459.0732">user_id : Integer &#171;FK&#187;</text><line style="stroke:#181818;stroke-width:0.5;" x1="171.5" x2="378.5" y1="466.375" y2="466.375"/></g><!--link Users to Vehicles--><g id="link_Users_Vehicles"><path codeLine="32" d="M230.2708,226.8265 C237.3328,251.6405 237.8959,253.6225 244.9599,278.4435 " fill="none" id="Users-Vehicles" style="stroke:#181818;stroke-width:1.0;stroke-dasharray:7.0,7.0;"/><line style="stroke:#181818;stroke-width:1.0;" x1="225.3287" x2="233.0231" y1="224.0741" y2="221.8843"/><line style="stroke:#181818;stroke-width:1.0;" x1="226.1499" x2="233.8443" y1="226.9596" y2="224.7697"/><line style="stroke:#181818;stroke-width:1.0;" x1="230.2708" x2="228.081" y1="226.8265" y2="219.132"/><line style="stroke:#181818;stroke-width:1.0;" x1="247.6972" x2="255.6578" y1="288.0615" y2="294.1136"/><line style="stroke:#181818;stroke-width:1.0;" x1="247.6972" x2="244.1162" y1="288.0615" y2="297.3984"/><line style="stroke:#181818;stroke-width:1.0;" x1="247.6972" x2="249.887" y1="288.0615" y2="295.756"/><ellipse cx="246.0548" cy="282.2907" fill="none" rx="4" ry="4" style="stroke:#181818;stroke-width:1.0;"/><text fill="#000000" font-family="sans-serif" font-size="13" lengthAdjust="spacing" textLength="34" x="242" y="262.0669">owns</text></g><!--link Users to Notifications--><g id="link_Users_Notifications"><path codeLine="33" d="M129.0178,226.1325 C114.1318,249.7465 104.816,269.374 97,296 C71.6106,382.495 86.8244,470.4446 103.8454,533.5196 " fill="none" id="Users-Notifications" style="stroke:#181818;stroke-width:1.0;stroke-dasharray:7.0,7.0;"/><line style="stroke:#181818;stroke-width:1.0;" x1="127.7671" x2="134.5347" y1="220.6157" y2="224.8819"/><line style="stroke:#181818;stroke-width:1.0;" x1="126.1673" x2="132.9349" y1="223.1535" y2="227.4197"/><line style="stroke:#181818;stroke-width:1.0;" x1="129.0178" x2="133.284" y1="226.1325" y2="219.365"/><line style="stroke:#181818;stroke-width:1.0;" x1="106.4507" x2="114.3278" y1="543.1743" y2="549.3348"/><line style="stroke:#181818;stroke-width:1.0;" x1="106.4507" x2="102.7422" y1="543.1743" y2="552.4612"/><line style="stroke:#181818;stroke-width:1.0;" x1="106.4507" x2="108.535" y1="543.1743" y2="550.898"/><ellipse cx="104.8875" cy="537.3815" fill="none" rx="4" ry="4" style="stroke:#181818;stroke-width:1.0;"/><text fill="#000000" font-family="sans-serif" font-size="13" lengthAdjust="spacing" textLength="54" x="98" y="389.5669">receives</text></g><!--link Vehicles to Notifications--><g id="link_Vehicles_Notifications"><path codeLine="34" d="M210.9899,480.7265 C193.4809,506.6375 189.379,512.7078 173.656,535.9758 " fill="none" id="Vehicles-Notifications" style="stroke:#181818;stroke-width:1.0;stroke-dasharray:7.0,7.0;"/><line style="stroke:#181818;stroke-width:1.0;" x1="209.9152" x2="216.5437" y1="475.1727" y2="479.6518"/><line style="stroke:#181818;stroke-width:1.0;" x1="208.2355" x2="214.864" y1="477.6584" y2="482.1375"/><line style="stroke:#181818;stroke-width:1.0;" x1="210.9899" x2="215.469" y1="480.7265" y2="474.098"/><line style="stroke:#181818;stroke-width:1.0;" x1="168.0571" x2="168.5494" y1="544.2615" y2="554.2493"/><line style="stroke:#181818;stroke-width:1.0;" x1="168.0571" x2="158.6066" y1="544.2615" y2="547.5307"/><line style="stroke:#181818;stroke-width:1.0;" x1="168.0571" x2="163.578" y1="544.2615" y2="550.89"/><ellipse cx="171.4165" cy="539.2901" fill="none" rx="4" ry="4" style="stroke:#181818;stroke-width:1.0;"/><text fill="#000000" font-family="sans-serif" font-size="13" lengthAdjust="spacing" textLength="23" x="192" y="517.0669">has</text></g><!--SRC=[ZPBRQW8n48Rlzoc2jmKVGCIBOWkbKAIblP6oZ9lVTJ27RGvQKT-zCHvNAfYhCD_yatzcqb0rfngYy_GkXaor8zqHwwA02HnMelDc0q-vei3M-1qHwJm8bg8dNan03IVw_T7hO919z73b5Nm-mWLcN2dSv9820ciaEZnSY-tPocUgVOS5Gxd2Ht1iwXo19bQda1X7mpyHtvajCPbPEo-ZKsrHGzulhPEbv1e-jA63XfwaLl-3-RdIN0mkyKTh5SY8iSIKeWezCINbhqpSgxaOojT-fdVCHTCy1LfEjPMuRjjP6QkTWN85SkTIcIgkO3pAHgNzj8N9QGBuRTYj3WlCSJQ-mRwWZBWaD_zAQY_lMcmstQvTYsEFATCkZM_3rWTD6GuLU05Vd5Gt4cVaYsBx1m00]--></g></svg>